<svg xmlns="http://www.w3.org/2000/svg" width="89.972" height="74.665"><g fill="#bebebe"><path fill-rule="evenodd" clip-rule="evenodd" d="M49.21 32.306a8.528 8.528 0 00-6.05 2.516C39.816 38.165 37.946 48.17 29.933 52.8c9.567.7 18.173.536 25.332-5.877 3.52-3.156 3.345-8.758 0-12.102a8.533 8.533 0 00-6.05-2.515z"/><path d="M79 21.98v44.416c0 .92-1.088 2.27-2.008 2.27H8.131c-.92 0-2.131-1.35-2.131-2.27V32.067l14.454-.092c3.021-.02 4.508-1.1 4.541-4.122l.275-14.189h40.926l6.465-6.744-49.408-.053L0 28.868v37.528c0 4.49 3.641 8.27 8.131 8.27h68.861c4.491 0 8.008-3.78 8.008-8.272v-50.88z"/><path d="M85.662 4.309l-25.68 25.68m-.001 4.311a4.311 4.311 0 01-3.048-7.358l25.681-25.68a4.311 4.311 0 016.096 6.096l-25.681 25.68a4.3 4.3 0 01-3.048 1.262z" fill-rule="evenodd" clip-rule="evenodd"/></g></svg>